<?xml version="1.0" encoding="UTF-8"?>
<svg width="800" height="600" viewBox="0 0 800 600" xmlns="http://www.w3.org/2000/svg" role="img" aria-labelledby="titleDesc">
  <title id="titleDesc">Ilustración simple de apoyo humanitario</title>
  <defs>
    <linearGradient id="g1" x1="0" x2="1">
      <stop offset="0%" stop-color="#FFEBEB" />
      <stop offset="100%" stop-color="#FFF5F5" />
    </linearGradient>
  </defs>
  <rect width="100%" height="100%" fill="url(#g1)" />

  <!-- Cruz roja estilizada -->
  <g transform="translate(80,60)">
    <rect x="220" y="20" width="60" height="160" rx="8" fill="#FF0000" />
    <rect x="180" y="60" width="140" height="60" rx="8" fill="#FF0000" />
  </g>

  <!-- Personas estilizadas -->
  <g transform="translate(120,220)" fill="#333333" opacity="0.95">
    <circle cx="60" cy="20" r="18" fill="#333333" />
    <rect x="44" y="36" width="32" height="60" rx="10" fill="#333333" />

    <circle cx="180" cy="30" r="18" fill="#000000" opacity="0.9" />
    <rect x="164" y="48" width="32" height="52" rx="10" fill="#000000" opacity="0.9" />

    <circle cx="300" cy="26" r="18" fill="#333333" />
    <rect x="284" y="44" width="32" height="56" rx="10" fill="#333333" />
  </g>

  <!-- Mano de apoyo -->
  <path d="M560 360c-60-6-96-24-132-48-36-24-84-28-130-18-46 10-86 36-128 56-42 20-86 30-116 50v90h520V360z" fill="#FFFFFF" opacity="0.85" />
  <circle cx="620" cy="420" r="48" fill="#FF0000" opacity="0.95" />
  <text x="620" y="430" text-anchor="middle" fill="#FFFFFF" font-family="Poppins, sans-serif" font-weight="700" font-size="18">Ayuda</text>

</svg>
